<svg width="24" height="24" viewBox="0 0 24 24" fill="none" xmlns="http://www.w3.org/2000/svg">
<path d="M7.2 2H9.8C13 2 15 4 15 7.2V11.25H8.75C8.34 11.25 8 11.59 8 12C8 12.41 8.34 12.75 8.75 12.75H15V16.8C15 20 13 22 9.8 22H7.21C4.01 22 2.01 20 2.01 16.8V7.2C2 4 4 2 7.2 2Z" fill="#2B4BF2"/>
<path d="M19.4396 11.2501L17.3696 9.18009C17.2196 9.03009 17.1496 8.84009 17.1496 8.65009C17.1496 8.46009 17.2196 8.26009 17.3696 8.12009C17.6596 7.83009 18.1396 7.83009 18.4296 8.12009L21.7796 11.4701C22.0696 11.7601 22.0696 12.2401 21.7796 12.5301L18.4296 15.8801C18.1396 16.1701 17.6596 16.1701 17.3696 15.8801C17.0796 15.5901 17.0796 15.1101 17.3696 14.8201L19.4396 12.7501H14.9996V11.2501H19.4396Z" fill="#2B4BF2"/>
</svg>
