<svg width="20" height="22" viewBox="0 0 20 16" fill="none" xmlns="http://www.w3.org/2000/svg">
<path fill-rule="evenodd" clip-rule="evenodd" d="M0.585786 0.585787C0.210714 0.960859 0 1.46957 0 2V2.97498C0.137065 2.97489 0.275089 3.01968 0.390442 3.11196L7.89144 9.11297L7.89147 9.11299C8.48993 9.59183 9.23355 9.85271 10 9.85271C10.7664 9.85271 11.5101 9.59183 12.1085 9.11299L12.1086 9.11297L19.6096 3.11196C19.7249 3.01968 19.8629 2.97489 20 2.97498V2C20 1.46957 19.7893 0.960859 19.4142 0.585787C19.0391 0.210714 18.5304 0 18 0H2C1.46957 0 0.960859 0.210714 0.585786 0.585787ZM20 4.4004L12.8895 10.089L12.8894 10.089C12.0693 10.7452 11.0503 11.1027 10 11.1027C8.9497 11.1027 7.93067 10.7452 7.11056 10.089L7.11053 10.089L0 4.4004V14C0 14.5304 0.210714 15.0391 0.585786 15.4142C0.960859 15.7893 1.46957 16 2 16H18C18.5304 16 19.0391 15.7893 19.4142 15.4142C19.7893 15.0391 20 14.5304 20 14V4.4004Z" fill="#2B4BF2"/>
</svg>
