<svg width="19" height="18" viewBox="0 0 19 18" fill="none" xmlns="http://www.w3.org/2000/svg">
<path fill-rule="evenodd" clip-rule="evenodd" d="M9.9425 0.666748C10.5267 0.666748 11 1.14008 11 1.72425C11 2.20508 11.33 2.61925 11.7792 2.79675C11.8499 2.82497 11.9202 2.85442 11.99 2.88508C12.4333 3.07758 12.9583 3.01925 13.3 2.67758C13.4983 2.47942 13.7672 2.36811 14.0475 2.36811C14.3278 2.36811 14.5967 2.47942 14.795 2.67758L15.6567 3.53925C15.8548 3.73755 15.9661 4.00641 15.9661 4.28675C15.9661 4.56708 15.8548 4.83595 15.6567 5.03425C15.3158 5.37591 15.2575 5.90175 15.4492 6.34425C15.4796 6.414 15.5087 6.48429 15.5367 6.55508C15.7142 7.00425 16.1275 7.33425 16.6092 7.33425C17.1933 7.33425 17.6667 7.80758 17.6667 8.39175V9.60925C17.6667 10.1934 17.1933 10.6667 16.6092 10.6667C16.1275 10.6667 15.7142 10.9967 15.5375 11.4459C15.5092 11.5167 15.48 11.5876 15.4492 11.6567C15.2567 12.1001 15.315 12.6251 15.6567 12.9667C15.8548 13.165 15.9661 13.4339 15.9661 13.7142C15.9661 13.9946 15.8548 14.2635 15.6567 14.4617L14.795 15.3234C14.6968 15.4217 14.5802 15.4996 14.4519 15.5528C14.3235 15.6059 14.186 15.6333 14.0471 15.6333C13.9082 15.6333 13.7706 15.6059 13.6423 15.5528C13.514 15.4996 13.3974 15.4217 13.2992 15.3234C12.9583 14.9826 12.4325 14.9234 11.99 15.1167C11.9208 15.1467 11.85 15.1759 11.7792 15.2034C11.33 15.3809 11 15.7942 11 16.2759C11 16.8601 10.5267 17.3334 9.9425 17.3334H8.72417C8.14 17.3334 7.66667 16.8601 7.66667 16.2759C7.66667 15.7942 7.33667 15.3809 6.8875 15.2042C6.81667 15.1759 6.74583 15.1467 6.67667 15.1159C6.23333 14.9234 5.70833 14.9817 5.36667 15.3234C5.16837 15.5216 4.8995 15.6329 4.61917 15.6329C4.33883 15.6329 4.06996 15.5216 3.87167 15.3234L3.01 14.4617C2.81184 14.2635 2.70053 13.9946 2.70053 13.7142C2.70053 13.4339 2.81184 13.165 3.01 12.9667C3.35083 12.6251 3.40917 12.0992 3.21667 11.6567L3.21028 11.6416C3.18314 11.5773 3.15544 11.5116 3.12917 11.4459C2.9525 10.9967 2.53917 10.6667 2.0575 10.6667C1.47333 10.6667 1 10.1934 1 9.60925V8.39091C1 7.80675 1.47333 7.33341 2.0575 7.33341C2.53917 7.33341 2.9525 7.00341 3.12917 6.55425C3.15712 6.48347 3.18629 6.41318 3.21667 6.34341C3.41 5.90008 3.35167 5.37508 3.01 5.03341C2.81184 4.83512 2.70053 4.56625 2.70053 4.28591C2.70053 4.00558 2.81184 3.73671 3.01 3.53841L3.87167 2.67675C4.06996 2.47859 4.33883 2.36728 4.61917 2.36728C4.8995 2.36728 5.16837 2.47859 5.36667 2.67675C5.70833 3.01758 6.23417 3.07591 6.67667 2.88425C6.74583 2.85425 6.81667 2.82425 6.8875 2.79591C7.33667 2.61925 7.66667 2.20591 7.66667 1.72425C7.66667 1.14008 8.14 0.666748 8.725 0.666748H9.9425ZM11.6904 11.3571C12.3155 10.732 12.6667 9.88414 12.6667 9.00008C12.6667 8.11603 12.3155 7.26818 11.6904 6.64306C11.0652 6.01794 10.2174 5.66675 9.33333 5.66675C8.44928 5.66675 7.60143 6.01794 6.97631 6.64306C6.35119 7.26818 6 8.11603 6 9.00008C6 9.88414 6.35119 10.732 6.97631 11.3571C7.60143 11.9822 8.44928 12.3334 9.33333 12.3334C10.2174 12.3334 11.0652 11.9822 11.6904 11.3571Z" fill="#2B4BF2"/>
<path d="M11.7792 2.79675L12.0107 2.2162L12.0089 2.21549L11.7792 2.79675ZM11.99 2.88508L11.7385 3.45726L11.7411 3.45837L11.99 2.88508ZM13.3 2.67758L12.8582 2.23548L12.8581 2.23564L13.3 2.67758ZM14.795 2.67758L15.2369 2.23564L15.2368 2.23548L14.795 2.67758ZM15.6567 3.53925L16.0988 3.09746L16.0986 3.09731L15.6567 3.53925ZM15.6567 5.03425L15.2146 4.59246L15.2142 4.59285L15.6567 5.03425ZM15.4492 6.34425L14.8757 6.59266L14.8762 6.59398L15.4492 6.34425ZM15.5367 6.55508L14.9553 6.78443L14.9554 6.78478L15.5367 6.55508ZM15.5375 11.4459L16.1178 11.678L16.1191 11.6747L15.5375 11.4459ZM15.4492 11.6567L14.8783 11.4023L14.8759 11.4078L15.4492 11.6567ZM15.6567 12.9667L16.0988 12.525L16.0986 12.5248L15.6567 12.9667ZM15.6567 14.4617L16.0986 14.9037L16.0988 14.9035L15.6567 14.4617ZM14.795 15.3234L14.3531 14.8815L14.353 14.8816L14.795 15.3234ZM13.2992 15.3234L13.7412 14.8816L13.7411 14.8815L13.2992 15.3234ZM11.99 15.1167L12.2387 15.6901L12.2402 15.6895L11.99 15.1167ZM11.7792 15.2034L11.553 14.6208L11.5495 14.6222L11.7792 15.2034ZM6.8875 15.2042L6.65537 15.7846L6.65873 15.7859L6.8875 15.2042ZM6.67667 15.1159L6.93115 14.545L6.92559 14.5426L6.67667 15.1159ZM5.36667 15.3234L5.80845 15.7655L5.80861 15.7654L5.36667 15.3234ZM3.87167 15.3234L3.42973 15.7654L3.42988 15.7655L3.87167 15.3234ZM3.01 14.4617L2.5679 14.9035L2.56806 14.9037L3.01 14.4617ZM3.01 12.9667L3.4521 13.4085L3.45248 13.4081L3.01 12.9667ZM3.21667 11.6567L2.64076 11.8997L2.64355 11.9061L3.21667 11.6567ZM3.21028 11.6416L3.78616 11.3987L3.78615 11.3987L3.21028 11.6416ZM3.12917 11.4459L2.54753 11.6747L2.54887 11.678L3.12917 11.4459ZM3.12917 6.55425L2.54786 6.32466L2.54754 6.32548L3.12917 6.55425ZM3.21667 6.34341L2.64377 6.09358L2.64362 6.09393L3.21667 6.34341ZM3.01 5.03341L2.5679 5.4752L2.56806 5.47536L3.01 5.03341ZM3.01 3.53841L2.56806 3.09647L2.5679 3.09663L3.01 3.53841ZM3.87167 2.67675L3.42988 2.23465L3.42972 2.23481L3.87167 2.67675ZM5.36667 2.67675L4.92488 3.11885L4.92526 3.11923L5.36667 2.67675ZM6.67667 2.88425L6.92508 3.45776L6.92536 3.45764L6.67667 2.88425ZM6.8875 2.79591L6.65873 2.21428L6.65538 2.21562L6.8875 2.79591ZM11.6904 6.64306L11.2484 7.085L11.6904 6.64306ZM6.97631 6.64306L7.41825 7.085L6.97631 6.64306ZM6.97631 11.3571L7.41825 10.9152L6.97631 11.3571ZM11.625 1.72425C11.625 0.794904 10.8718 0.041748 9.9425 0.041748V1.29175C10.1815 1.29175 10.375 1.48526 10.375 1.72425H11.625ZM12.0089 2.21549C11.7559 2.11554 11.625 1.9059 11.625 1.72425H10.375C10.375 2.50426 10.9041 3.12296 11.5495 3.37801L12.0089 2.21549ZM12.2415 2.3129C12.1651 2.27934 12.0881 2.2471 12.0107 2.2162L11.5477 3.3773C11.6118 3.40285 11.6754 3.4295 11.7385 3.45726L12.2415 2.3129ZM12.8581 2.23564C12.7282 2.36548 12.4888 2.42031 12.2389 2.31179L11.7411 3.45837C12.3778 3.73486 13.1885 3.67301 13.7419 3.11952L12.8581 2.23564ZM14.0475 1.74311C13.6015 1.74311 13.1737 1.92021 12.8582 2.23548L13.7418 3.11968C13.8229 3.03864 13.9328 2.99311 14.0475 2.99311V1.74311ZM15.2368 2.23548C14.9213 1.92021 14.4935 1.74311 14.0475 1.74311V2.99311C14.1622 2.99311 14.2721 3.03864 14.3532 3.11968L15.2368 2.23548ZM16.0986 3.09731L15.2369 2.23564L14.3531 3.11952L15.2147 3.98119L16.0986 3.09731ZM16.5911 4.28675C16.5911 3.84073 16.414 3.41296 16.0988 3.09746L15.2146 3.98103C15.2956 4.06213 15.3411 4.1721 15.3411 4.28675H16.5911ZM16.0988 5.47603C16.414 5.16054 16.5911 4.73277 16.5911 4.28675H15.3411C15.3411 4.4014 15.2956 4.51136 15.2146 4.59246L16.0988 5.47603ZM16.0227 6.09583C15.9147 5.84651 15.9694 5.60567 16.0991 5.47565L15.2142 4.59285C14.6622 5.14616 14.6003 5.95699 14.8757 6.59266L16.0227 6.09583ZM16.1181 6.32574C16.0874 6.24811 16.0555 6.17102 16.0221 6.09452L14.8762 6.59398C14.9037 6.65699 14.93 6.72048 14.9553 6.78443L16.1181 6.32574ZM16.6092 6.70925C16.4269 6.70925 16.218 6.57857 16.1179 6.32538L14.9554 6.78478C15.2104 7.42992 15.8281 7.95925 16.6092 7.95925V6.70925ZM18.2917 8.39175C18.2917 7.4624 17.5385 6.70925 16.6092 6.70925V7.95925C16.8482 7.95925 17.0417 8.15276 17.0417 8.39175H18.2917ZM18.2917 9.60925V8.39175H17.0417V9.60925H18.2917ZM16.6092 11.2917C17.5385 11.2917 18.2917 10.5386 18.2917 9.60925H17.0417C17.0417 9.84824 16.8482 10.0417 16.6092 10.0417V11.2917ZM16.1191 11.6747C16.2183 11.4225 16.4268 11.2917 16.6092 11.2917V10.0417C15.8282 10.0417 15.21 10.571 14.9559 11.2171L16.1191 11.6747ZM16.02 11.9112C16.0555 11.8315 16.0881 11.7523 16.1178 11.678L14.9572 11.2138C14.9302 11.2812 14.9045 11.3437 14.8783 11.4023L16.02 11.9112ZM16.0986 12.5248C15.9688 12.395 15.9139 12.1556 16.0225 11.9057L14.8759 11.4078C14.5994 12.0446 14.6612 12.8552 15.2147 13.4087L16.0986 12.5248ZM16.5911 13.7142C16.5911 13.2682 16.414 12.8405 16.0988 12.525L15.2146 13.4085C15.2956 13.4896 15.3411 13.5996 15.3411 13.7142H16.5911ZM16.0988 14.9035C16.414 14.588 16.5911 14.1603 16.5911 13.7142H15.3411C15.3411 13.8289 15.2956 13.9389 15.2146 14.02L16.0988 14.9035ZM15.2369 15.7654L16.0986 14.9037L15.2147 14.0198L14.3531 14.8815L15.2369 15.7654ZM14.6911 16.1302C14.8953 16.0456 15.0808 15.9216 15.237 15.7653L14.353 14.8816C14.3128 14.9217 14.2651 14.9536 14.2126 14.9754L14.6911 16.1302ZM14.0471 16.2583C14.2681 16.2583 14.4869 16.2148 14.6911 16.1302L14.2126 14.9754C14.1601 14.9971 14.1039 15.0083 14.0471 15.0083V16.2583ZM13.4031 16.1302C13.6072 16.2148 13.8261 16.2583 14.0471 16.2583V15.0083C13.9903 15.0083 13.934 14.9971 13.8815 14.9754L13.4031 16.1302ZM12.8571 15.7653C13.0134 15.9216 13.1989 16.0456 13.4031 16.1302L13.8815 14.9754C13.829 14.9536 13.7814 14.9217 13.7412 14.8816L12.8571 15.7653ZM12.2402 15.6895C12.4879 15.5812 12.7278 15.636 12.8572 15.7654L13.7411 14.8815C13.1888 14.3292 12.3771 14.2656 11.7398 14.544L12.2402 15.6895ZM12.0054 15.786C12.0841 15.7555 12.1624 15.7232 12.2387 15.6901L11.7413 14.5434C11.6793 14.5703 11.6159 14.5963 11.553 14.6208L12.0054 15.786ZM11.625 16.2759C11.625 16.0937 11.7557 15.8847 12.0089 15.7847L11.5495 14.6222C10.9043 14.8771 10.375 15.4948 10.375 16.2759H11.625ZM9.9425 17.9584C10.8718 17.9584 11.625 17.2053 11.625 16.2759H10.375C10.375 16.5149 10.1815 16.7084 9.9425 16.7084V17.9584ZM8.72417 17.9584H9.9425V16.7084H8.72417V17.9584ZM7.04167 16.2759C7.04167 17.2053 7.79482 17.9584 8.72417 17.9584V16.7084C8.48518 16.7084 8.29167 16.5149 8.29167 16.2759H7.04167ZM6.65873 15.7859C6.91095 15.8851 7.04167 16.0936 7.04167 16.2759H8.29167C8.29167 15.4949 7.76239 14.8768 7.11627 14.6226L6.65873 15.7859ZM6.42219 15.6868C6.5019 15.7223 6.58113 15.7548 6.65538 15.7845L7.11962 14.624C7.0522 14.597 6.98976 14.5712 6.93114 14.5451L6.42219 15.6868ZM5.80861 15.7654C5.93845 15.6355 6.17783 15.5807 6.42774 15.6892L6.92559 14.5426C6.28884 14.2661 5.47821 14.328 4.92472 14.8815L5.80861 15.7654ZM4.61917 16.2579C5.06519 16.2579 5.49296 16.0808 5.80845 15.7655L4.92488 14.8813C4.84378 14.9624 4.73382 15.0079 4.61917 15.0079V16.2579ZM3.42988 15.7655C3.74538 16.0808 4.17315 16.2579 4.61917 16.2579V15.0079C4.50452 15.0079 4.39455 14.9624 4.31345 14.8813L3.42988 15.7655ZM2.56806 14.9037L3.42973 15.7654L4.31361 14.8815L3.45194 14.0198L2.56806 14.9037ZM2.07553 13.7142C2.07553 14.1603 2.25263 14.588 2.5679 14.9035L3.4521 14.02C3.37106 13.9389 3.32553 13.8289 3.32553 13.7142H2.07553ZM2.5679 12.525C2.25263 12.8405 2.07553 13.2682 2.07553 13.7142H3.32553C3.32553 13.5996 3.37106 13.4896 3.4521 13.4085L2.5679 12.525ZM2.64355 11.9061C2.75179 12.1549 2.69718 12.3954 2.56752 12.5253L3.45248 13.4081C4.00449 12.8548 4.06655 12.0436 3.78978 11.4074L2.64355 11.9061ZM2.63441 11.8845L2.64079 11.8996L3.79254 11.4139L3.78616 11.3987L2.63441 11.8845ZM2.54887 11.678C2.57767 11.75 2.60766 11.8211 2.63442 11.8845L3.78615 11.3987C3.75862 11.3335 3.73321 11.2732 3.70946 11.2138L2.54887 11.678ZM2.0575 11.2917C2.23984 11.2917 2.44834 11.4225 2.54754 11.6747L3.71079 11.2171C3.45666 10.571 2.83849 10.0417 2.0575 10.0417V11.2917ZM0.375 9.60925C0.375 10.5386 1.12816 11.2917 2.0575 11.2917V10.0417C1.81851 10.0417 1.625 9.84824 1.625 9.60925H0.375ZM0.375 8.39091V9.60925H1.625V8.39091H0.375ZM2.0575 6.70841C1.12816 6.70841 0.375 7.46157 0.375 8.39091H1.625C1.625 8.15193 1.81851 7.95841 2.0575 7.95841V6.70841ZM2.54754 6.32548C2.44834 6.57769 2.23984 6.70841 2.0575 6.70841V7.95841C2.83849 7.95841 3.45666 7.42913 3.71079 6.78301L2.54754 6.32548ZM2.64362 6.09393C2.61038 6.17028 2.57845 6.2472 2.54786 6.32466L3.71047 6.78384C3.73578 6.71974 3.7622 6.65609 3.78971 6.5929L2.64362 6.09393ZM2.56806 5.47536C2.69786 5.60516 2.75253 5.84419 2.64377 6.09358L3.78956 6.59325C4.06747 5.95598 4.00547 5.145 3.45194 4.59147L2.56806 5.47536ZM2.07553 4.28591C2.07553 4.73193 2.25263 5.1597 2.5679 5.4752L3.4521 4.59163C3.37106 4.51053 3.32553 4.40057 3.32553 4.28591H2.07553ZM2.5679 3.09663C2.25263 3.41213 2.07553 3.83989 2.07553 4.28591H3.32553C3.32553 4.17126 3.37106 4.0613 3.4521 3.9802L2.5679 3.09663ZM3.42972 2.23481L2.56806 3.09647L3.45194 3.98036L4.31361 3.11869L3.42972 2.23481ZM4.61917 1.74228C4.17315 1.74228 3.74538 1.91938 3.42988 2.23465L4.31345 3.11885C4.39455 3.0378 4.50451 2.99228 4.61917 2.99228V1.74228ZM5.80845 2.23465C5.49296 1.91938 5.06519 1.74228 4.61917 1.74228V2.99228C4.73382 2.99228 4.84378 3.0378 4.92488 3.11885L5.80845 2.23465ZM6.42825 2.31074C6.17893 2.41873 5.93809 2.36397 5.80807 2.23427L4.92526 3.11923C5.47858 3.6712 6.2894 3.7331 6.92508 3.45776L6.42825 2.31074ZM6.65538 2.21562C6.577 2.24697 6.50023 2.27952 6.42797 2.31086L6.92536 3.45764C6.99144 3.42898 7.05633 3.40153 7.11962 3.37621L6.65538 2.21562ZM7.04167 1.72425C7.04167 1.90659 6.91095 2.11509 6.65873 2.21429L7.11627 3.37754C7.76239 3.12341 8.29167 2.50524 8.29167 1.72425H7.04167ZM8.725 0.041748C7.79514 0.041748 7.04167 0.794582 7.04167 1.72425H8.29167C8.29167 1.48558 8.48486 1.29175 8.725 1.29175V0.041748ZM9.9425 0.041748H8.725V1.29175H9.9425V0.041748ZM12.0417 9.00008C12.0417 9.71838 11.7563 10.4073 11.2484 10.9152L12.1323 11.799C12.8746 11.0567 13.2917 10.0499 13.2917 9.00008H12.0417ZM11.2484 7.085C11.7563 7.59291 12.0417 8.28179 12.0417 9.00008H13.2917C13.2917 7.95027 12.8746 6.94345 12.1323 6.20112L11.2484 7.085ZM9.33333 6.29175C10.0516 6.29175 10.7405 6.57709 11.2484 7.085L12.1323 6.20112C11.39 5.45879 10.3831 5.04175 9.33333 5.04175V6.29175ZM7.41825 7.085C7.92616 6.57709 8.61504 6.29175 9.33333 6.29175V5.04175C8.28352 5.04175 7.2767 5.45879 6.53437 6.20112L7.41825 7.085ZM6.625 9.00008C6.625 8.28179 6.91034 7.59291 7.41825 7.085L6.53437 6.20112C5.79204 6.94345 5.375 7.95027 5.375 9.00008H6.625ZM7.41825 10.9152C6.91034 10.4073 6.625 9.71838 6.625 9.00008H5.375C5.375 10.0499 5.79204 11.0567 6.53437 11.799L7.41825 10.9152ZM9.33333 11.7084C8.61504 11.7084 7.92616 11.4231 7.41825 10.9152L6.53437 11.799C7.2767 12.5414 8.28352 12.9584 9.33333 12.9584V11.7084ZM11.2484 10.9152C10.7405 11.4231 10.0516 11.7084 9.33333 11.7084V12.9584C10.3831 12.9584 11.39 12.5414 12.1323 11.799L11.2484 10.9152Z" fill="#2B4BF2"/>
</svg>
