<svg width="16" height="16" viewBox="0 0 16 16" fill="none" xmlns="http://www.w3.org/2000/svg">
<path d="M8.00016 8.66668C8.18905 8.66668 8.3475 8.60268 8.4755 8.47468C8.60305 8.34712 8.66683 8.1889 8.66683 8.00001V5.31668C8.66683 5.12779 8.60305 4.97223 8.4755 4.85001C8.3475 4.72779 8.18905 4.66668 8.00016 4.66668C7.81127 4.66668 7.65305 4.73045 7.5255 4.85801C7.3975 4.98601 7.3335 5.14445 7.3335 5.33334V8.01668C7.3335 8.20557 7.3975 8.36112 7.5255 8.48334C7.65305 8.60557 7.81127 8.66668 8.00016 8.66668ZM8.00016 11.3333C8.18905 11.3333 8.3475 11.2693 8.4755 11.1413C8.60305 11.0138 8.66683 10.8556 8.66683 10.6667C8.66683 10.4778 8.60305 10.3193 8.4755 10.1913C8.3475 10.0638 8.18905 10 8.00016 10C7.81127 10 7.65305 10.0638 7.5255 10.1913C7.3975 10.3193 7.3335 10.4778 7.3335 10.6667C7.3335 10.8556 7.3975 11.0138 7.5255 11.1413C7.65305 11.2693 7.81127 11.3333 8.00016 11.3333ZM8.00016 14.6667C7.07794 14.6667 6.21127 14.4916 5.40016 14.1413C4.58905 13.7916 3.8835 13.3167 3.2835 12.7167C2.6835 12.1167 2.20861 11.4111 1.85883 10.6C1.50861 9.7889 1.3335 8.92223 1.3335 8.00001C1.3335 7.07779 1.50861 6.21112 1.85883 5.40001C2.20861 4.5889 2.6835 3.88334 3.2835 3.28334C3.8835 2.68334 4.58905 2.20823 5.40016 1.85801C6.21127 1.50823 7.07794 1.33334 8.00016 1.33334C8.92239 1.33334 9.78905 1.50823 10.6002 1.85801C11.4113 2.20823 12.1168 2.68334 12.7168 3.28334C13.3168 3.88334 13.7917 4.5889 14.1415 5.40001C14.4917 6.21112 14.6668 7.07779 14.6668 8.00001C14.6668 8.92223 14.4917 9.7889 14.1415 10.6C13.7917 11.4111 13.3168 12.1167 12.7168 12.7167C12.1168 13.3167 11.4113 13.7916 10.6002 14.1413C9.78905 14.4916 8.92239 14.6667 8.00016 14.6667ZM8.00016 13.3333C9.47794 13.3333 10.7364 12.814 11.7755 11.7753C12.8142 10.7362 13.3335 9.47779 13.3335 8.00001C13.3335 6.52223 12.8142 5.26379 11.7755 4.22468C10.7364 3.18601 9.47794 2.66668 8.00016 2.66668C6.52239 2.66668 5.26416 3.18601 4.2255 4.22468C3.18638 5.26379 2.66683 6.52223 2.66683 8.00001C2.66683 9.47779 3.18638 10.7362 4.2255 11.7753C5.26416 12.814 6.52239 13.3333 8.00016 13.3333Z" fill="#E02D3C"/>
</svg>
