<svg width="178" height="35" viewBox="0 0 178 35" fill="none" xmlns="http://www.w3.org/2000/svg">
<ellipse cx="16.99" cy="24.3593" rx="4.25455" ry="4.25454" fill="#2B4BF2"/>
<ellipse cx="16.99" cy="10.6405" rx="4.25455" ry="4.25454" fill="#2B4BF2"/>
<path d="M3.70253 11.198C5.39484 9.49947 8.14364 9.49444 9.84216 11.1867L16.2034 17.5248L13.1318 20.6076C11.5072 22.2382 8.86835 22.243 7.23778 20.6184L0.753482 14.1579L3.70253 11.198Z" fill="#2B4BF2"/>
<path d="M20.8887 20.6335C19.1808 18.9506 19.1605 16.2019 20.8433 14.494L27.1458 8.09756L30.2458 11.152C31.8854 12.7675 31.9049 15.4063 30.2893 17.0459L23.8649 23.566L20.8887 20.6335Z" fill="#2B4BF2"/>
<path d="M41.0107 23.9L45.2724 6.60348H47.5796L47.7265 10.2479L43.171 28H40.7315L41.0107 23.9ZM38.3215 6.60348L41.819 23.8412V28H39.1591L34.3096 6.60348H38.3215ZM52.1499 23.7677L55.5886 6.60348H59.6151L54.7656 28H52.1058L52.1499 23.7677ZM48.6817 6.60348L52.9434 23.9588L53.1932 28H50.7538L46.2129 10.2332L46.3893 6.60348H48.6817ZM65.7544 6.60348V28H61.7132V6.60348H65.7544ZM80.5934 22.4451C80.5934 22.0337 80.5297 21.6663 80.4023 21.343C80.2848 21.0099 80.0644 20.7111 79.7411 20.4466C79.4276 20.1722 78.9818 19.9077 78.4038 19.653C77.8355 19.3885 77.1008 19.1142 76.1995 18.8301C75.2002 18.5166 74.2695 18.1639 73.4073 17.772C72.5452 17.3801 71.7859 16.9246 71.1295 16.4053C70.4829 15.8861 69.9784 15.2885 69.6159 14.6125C69.2534 13.9267 69.0722 13.1331 69.0722 12.2318C69.0722 11.3501 69.2583 10.5467 69.6306 9.82178C70.0127 9.0968 70.5515 8.4747 71.2471 7.95546C71.9427 7.42642 72.7607 7.01985 73.7012 6.73574C74.6515 6.45163 75.6998 6.30957 76.8461 6.30957C78.4332 6.30957 79.8047 6.59858 80.9608 7.1766C82.1266 7.75462 83.0279 8.53838 83.6647 9.52787C84.3015 10.5174 84.6199 11.6293 84.6199 12.8637H80.5934C80.5934 12.1975 80.4513 11.6097 80.1672 11.1003C79.8929 10.5908 79.4716 10.1892 78.9034 9.89525C78.345 9.60134 77.6396 9.45439 76.7873 9.45439C75.9643 9.45439 75.2785 9.57685 74.7299 9.82178C74.1911 10.0667 73.7845 10.3998 73.5102 10.8211C73.2457 11.2423 73.1134 11.7126 73.1134 12.2318C73.1134 12.6237 73.2065 12.9764 73.3926 13.2899C73.5788 13.5936 73.858 13.8826 74.2303 14.1569C74.6026 14.4214 75.063 14.6713 75.6116 14.9064C76.1701 15.1317 76.8167 15.357 77.5514 15.5824C78.7271 15.9351 79.7557 16.3269 80.6375 16.758C81.529 17.1891 82.2687 17.6789 82.8565 18.2276C83.4541 18.7762 83.8999 19.3934 84.1938 20.0792C84.4975 20.765 84.6493 21.5438 84.6493 22.4157C84.6493 23.3367 84.4681 24.1596 84.1056 24.8846C83.7431 25.6095 83.2239 26.2268 82.5479 26.7362C81.8719 27.2456 81.0587 27.6326 80.1084 27.8971C79.1679 28.1616 78.1148 28.2939 76.9489 28.2939C75.9104 28.2939 74.8818 28.1568 73.8629 27.8824C72.8538 27.5983 71.9378 27.1771 71.1148 26.6186C70.2919 26.0504 69.6355 25.3352 69.1457 24.4731C68.6558 23.6012 68.4109 22.5823 68.4109 21.4165H72.4668C72.4668 22.0924 72.5746 22.6705 72.7901 23.1505C73.0155 23.6208 73.329 24.0077 73.7306 24.3115C74.1421 24.6054 74.6222 24.8209 75.1708 24.958C75.7194 25.0952 76.3121 25.1638 76.9489 25.1638C77.7719 25.1638 78.4479 25.0511 78.9769 24.8258C79.5157 24.5907 79.9174 24.2674 80.1819 23.8559C80.4562 23.4444 80.5934 22.9742 80.5934 22.4451Z" fill="#2B4BF2"/>
<path d="M99.0857 15.5315L101.039 7.60512H102.096L102.163 9.27525L100.076 17.4104H98.9578L99.0857 15.5315ZM97.8533 7.60512L99.4561 15.5046V17.4104H98.2372L96.0148 7.60512H97.8533ZM104.19 15.4709L105.766 7.60512H107.611L105.389 17.4104H104.17L104.19 15.4709ZM102.601 7.60512L104.554 15.5584L104.669 17.4104H103.551L101.47 9.26852L101.551 7.60512H102.601ZM116.392 12.2586V12.7637C116.392 13.5045 116.293 14.1712 116.095 14.7638C115.898 15.3519 115.617 15.8525 115.253 16.2656C114.89 16.6786 114.457 16.9951 113.954 17.2151C113.451 17.4351 112.892 17.5451 112.277 17.5451C111.671 17.5451 111.114 17.4351 110.607 17.2151C110.104 16.9951 109.668 16.6786 109.3 16.2656C108.932 15.8525 108.647 15.3519 108.445 14.7638C108.243 14.1712 108.142 13.5045 108.142 12.7637V12.2586C108.142 11.5133 108.243 10.8466 108.445 10.2585C108.647 9.67034 108.93 9.16975 109.294 8.7567C109.657 8.33917 110.09 8.02041 110.593 7.80042C111.101 7.58043 111.657 7.47043 112.263 7.47043C112.878 7.47043 113.437 7.58043 113.94 7.80042C114.443 8.02041 114.876 8.33917 115.24 8.7567C115.608 9.16975 115.891 9.67034 116.089 10.2585C116.291 10.8466 116.392 11.5133 116.392 12.2586ZM114.519 12.7637V12.2451C114.519 11.7109 114.47 11.2417 114.371 10.8376C114.272 10.4291 114.127 10.0856 113.934 9.80727C113.74 9.52891 113.503 9.32015 113.22 9.18097C112.937 9.0373 112.618 8.96547 112.263 8.96547C111.904 8.96547 111.585 9.0373 111.307 9.18097C111.033 9.32015 110.8 9.52891 110.607 9.80727C110.414 10.0856 110.266 10.4291 110.162 10.8376C110.063 11.2417 110.014 11.7109 110.014 12.2451V12.7637C110.014 13.2934 110.063 13.7626 110.162 14.1712C110.266 14.5797 110.414 14.9254 110.607 15.2083C110.804 15.4866 111.042 15.6976 111.321 15.8413C111.599 15.985 111.918 16.0568 112.277 16.0568C112.636 16.0568 112.955 15.985 113.233 15.8413C113.511 15.6976 113.745 15.4866 113.934 15.2083C114.127 14.9254 114.272 14.5797 114.371 14.1712C114.47 13.7626 114.519 13.2934 114.519 12.7637ZM117.629 7.60512H121.192C121.937 7.60512 122.577 7.71736 123.111 7.94184C123.645 8.16632 124.056 8.49855 124.343 8.93853C124.631 9.37851 124.774 9.91951 124.774 10.5615C124.774 11.0688 124.685 11.5088 124.505 11.8815C124.325 12.2541 124.072 12.5661 123.744 12.8175C123.421 13.069 123.039 13.2665 122.599 13.4102L122.02 13.7065H118.875L118.862 12.2451H121.212C121.593 12.2451 121.91 12.1778 122.161 12.0431C122.413 11.9084 122.601 11.7221 122.727 11.4841C122.857 11.2462 122.922 10.9746 122.922 10.6693C122.922 10.3415 122.86 10.0587 122.734 9.82074C122.608 9.5783 122.417 9.39198 122.161 9.26178C121.905 9.13158 121.582 9.06649 121.192 9.06649H119.481V17.4104H117.629V7.60512ZM123.165 17.4104L120.895 13.0196L122.855 13.0128L125.151 17.3161V17.4104H123.165ZM127.918 7.60512V17.4104H126.066V7.60512H127.918ZM133.804 7.60512L129.871 12.3865L127.621 14.7907L127.291 12.9926L128.854 10.9656L131.534 7.60512H133.804ZM131.743 17.4104L128.692 12.8175L130.019 11.6188L133.945 17.4104H131.743ZM140.981 11.6525V13.1071H135.822V11.6525H140.981ZM136.327 7.60512V17.4104H134.475V7.60512H136.327ZM142.355 7.60512V17.4104H140.503V7.60512H142.355ZM151.849 12.2586V12.7637C151.849 13.5045 151.75 14.1712 151.552 14.7638C151.355 15.3519 151.074 15.8525 150.711 16.2656C150.347 16.6786 149.914 16.9951 149.411 17.2151C148.908 17.4351 148.349 17.5451 147.734 17.5451C147.128 17.5451 146.571 17.4351 146.064 17.2151C145.561 16.9951 145.126 16.6786 144.757 16.2656C144.389 15.8525 144.104 15.3519 143.902 14.7638C143.7 14.1712 143.599 13.5045 143.599 12.7637V12.2586C143.599 11.5133 143.7 10.8466 143.902 10.2585C144.104 9.67034 144.387 9.16975 144.751 8.7567C145.114 8.33917 145.548 8.02041 146.05 7.80042C146.558 7.58043 147.114 7.47043 147.72 7.47043C148.336 7.47043 148.895 7.58043 149.397 7.80042C149.9 8.02041 150.333 8.33917 150.697 8.7567C151.065 9.16975 151.348 9.67034 151.546 10.2585C151.748 10.8466 151.849 11.5133 151.849 12.2586ZM149.977 12.7637V12.2451C149.977 11.7109 149.927 11.2417 149.828 10.8376C149.73 10.4291 149.584 10.0856 149.391 9.80727C149.198 9.52891 148.96 9.32015 148.677 9.18097C148.394 9.0373 148.075 8.96547 147.72 8.96547C147.361 8.96547 147.043 9.0373 146.764 9.18097C146.49 9.32015 146.257 9.52891 146.064 9.80727C145.871 10.0856 145.723 10.4291 145.619 10.8376C145.521 11.2417 145.471 11.7109 145.471 12.2451V12.7637C145.471 13.2934 145.521 13.7626 145.619 14.1712C145.723 14.5797 145.871 14.9254 146.064 15.2083C146.261 15.4866 146.499 15.6976 146.778 15.8413C147.056 15.985 147.375 16.0568 147.734 16.0568C148.093 16.0568 148.412 15.985 148.69 15.8413C148.969 15.6976 149.202 15.4866 149.391 15.2083C149.584 14.9254 149.73 14.5797 149.828 14.1712C149.927 13.7626 149.977 13.2934 149.977 12.7637ZM158.541 7.60512H160.393V14.1173C160.393 14.867 160.231 15.4978 159.908 16.0096C159.585 16.517 159.145 16.9008 158.588 17.1612C158.032 17.4171 157.399 17.5451 156.689 17.5451C155.971 17.5451 155.331 17.4171 154.77 17.1612C154.209 16.9008 153.769 16.517 153.45 16.0096C153.131 15.4978 152.972 14.867 152.972 14.1173V7.60512H154.824V14.1173C154.824 14.5752 154.9 14.9501 155.053 15.2419C155.205 15.5293 155.421 15.7425 155.699 15.8817C155.978 16.0209 156.308 16.0905 156.689 16.0905C157.075 16.0905 157.405 16.0209 157.679 15.8817C157.957 15.7425 158.171 15.5293 158.319 15.2419C158.467 14.9501 158.541 14.5752 158.541 14.1173V7.60512ZM166.951 14.8648C166.951 14.6762 166.922 14.5079 166.863 14.3597C166.809 14.2071 166.708 14.0701 166.56 13.9489C166.417 13.8232 166.212 13.702 165.947 13.5853C165.687 13.464 165.35 13.3383 164.937 13.2081C164.479 13.0645 164.053 12.9028 163.658 12.7233C163.263 12.5437 162.915 12.3349 162.614 12.097C162.318 11.859 162.086 11.5851 161.92 11.2754C161.754 10.9611 161.671 10.5974 161.671 10.1844C161.671 9.78033 161.756 9.41218 161.927 9.07995C162.102 8.74772 162.349 8.46263 162.668 8.22469C162.987 7.98225 163.361 7.79593 163.792 7.66573C164.228 7.53553 164.708 7.47043 165.234 7.47043C165.961 7.47043 166.589 7.60288 167.119 7.86776C167.653 8.13265 168.066 8.49182 168.358 8.94527C168.65 9.39872 168.796 9.90828 168.796 10.474H166.951C166.951 10.1687 166.886 9.89931 166.756 9.66585C166.63 9.43239 166.437 9.24831 166.176 9.11363C165.92 8.97894 165.597 8.91159 165.207 8.91159C164.829 8.91159 164.515 8.96771 164.264 9.07995C164.017 9.19219 163.831 9.34484 163.705 9.53789C163.584 9.73095 163.523 9.94645 163.523 10.1844C163.523 10.364 163.566 10.5256 163.651 10.6693C163.736 10.8084 163.864 10.9409 164.035 11.0666C164.205 11.1878 164.416 11.3023 164.668 11.4101C164.924 11.5133 165.22 11.6166 165.557 11.7198C166.096 11.8815 166.567 12.061 166.971 12.2586C167.38 12.4561 167.719 12.6806 167.988 12.932C168.262 13.1834 168.466 13.4663 168.601 13.7806C168.74 14.0948 168.81 14.4518 168.81 14.8513C168.81 15.2734 168.726 15.6505 168.56 15.9827C168.394 16.3149 168.156 16.5978 167.846 16.8312C167.537 17.0647 167.164 17.242 166.729 17.3633C166.298 17.4845 165.815 17.5451 165.281 17.5451C164.805 17.5451 164.333 17.4822 163.866 17.3565C163.404 17.2263 162.984 17.0333 162.607 16.7774C162.23 16.517 161.929 16.1892 161.705 15.7941C161.48 15.3946 161.368 14.9277 161.368 14.3934H163.227C163.227 14.7032 163.276 14.9681 163.375 15.1881C163.478 15.4036 163.622 15.5809 163.806 15.7201C163.994 15.8548 164.214 15.9535 164.466 16.0164C164.717 16.0792 164.989 16.1107 165.281 16.1107C165.658 16.1107 165.968 16.059 166.21 15.9558C166.457 15.848 166.641 15.6999 166.762 15.5113C166.888 15.3227 166.951 15.1072 166.951 14.8648ZM176.404 15.9558V17.4104H171.192V15.9558H176.404ZM171.758 7.60512V17.4104H169.906V7.60512H171.758ZM175.724 11.6525V13.0735H171.192V11.6525H175.724ZM176.384 7.60512V9.06649H171.192V7.60512H176.384Z" fill="#2B4BF2"/>
<path d="M97.6647 22.3259V28.5894H97.1356V22.3259H97.6647ZM103.82 22.3259V28.5894H103.286L99.6856 23.2379V28.5894H99.1565V22.3259H99.6856L103.295 27.6774V22.3259H103.82ZM107.166 27.8107L109.14 22.3259H109.716L107.385 28.5894H106.959L107.166 27.8107ZM105.126 22.3259L107.092 27.8107L107.307 28.5894H106.877L104.55 22.3259H105.126ZM114.327 28.1377V28.5894H110.804V28.1377H114.327ZM110.963 22.3259V28.5894H110.434V22.3259H110.963ZM113.888 25.135V25.5867H110.804V25.135H113.888ZM114.306 22.3259V22.7819H110.804V22.3259H114.306ZM119.901 22.3259V28.5894H119.368L115.767 23.2379V28.5894H115.238V22.3259H115.767L119.376 27.6774V22.3259H119.901ZM123.26 22.3259V28.5894H122.735V22.3259H123.26ZM125.407 22.3259V22.7819H120.593V22.3259H125.407ZM130.718 25.1221V25.7932C130.718 26.2319 130.661 26.6291 130.546 26.9848C130.435 27.3375 130.271 27.6401 130.056 27.8925C129.844 28.1448 129.588 28.3384 129.29 28.4732C128.992 28.608 128.656 28.6754 128.284 28.6754C127.919 28.6754 127.587 28.608 127.286 28.4732C126.987 28.3384 126.731 28.1448 126.516 27.8925C126.3 27.6401 126.134 27.3375 126.017 26.9848C125.899 26.6291 125.84 26.2319 125.84 25.7932V25.1221C125.84 24.6833 125.898 24.2875 126.012 23.9348C126.13 23.5791 126.296 23.2751 126.511 23.0228C126.726 22.7704 126.983 22.5768 127.281 22.442C127.58 22.3072 127.911 22.2398 128.275 22.2398C128.648 22.2398 128.983 22.3072 129.282 22.442C129.58 22.5768 129.837 22.7704 130.052 23.0228C130.267 23.2751 130.432 23.5791 130.546 23.9348C130.661 24.2875 130.718 24.6833 130.718 25.1221ZM130.194 25.7932V25.1135C130.194 24.7435 130.151 24.4108 130.065 24.1154C129.981 23.82 129.857 23.5677 129.69 23.3583C129.527 23.149 129.326 22.9884 129.088 22.8765C128.85 22.7647 128.579 22.7087 128.275 22.7087C127.98 22.7087 127.714 22.7647 127.479 22.8765C127.244 22.9884 127.043 23.149 126.877 23.3583C126.713 23.5677 126.587 23.82 126.498 24.1154C126.412 24.4108 126.369 24.7435 126.369 25.1135V25.7932C126.369 26.166 126.412 26.5015 126.498 26.7998C126.587 27.0952 126.715 27.349 126.881 27.5612C127.048 27.7706 127.248 27.9312 127.483 28.043C127.721 28.1549 127.988 28.2108 128.284 28.2108C128.59 28.2108 128.861 28.1549 129.097 28.043C129.332 27.9312 129.531 27.7706 129.695 27.5612C129.858 27.349 129.981 27.0952 130.065 26.7998C130.151 26.5015 130.194 26.166 130.194 25.7932ZM131.832 22.3259H133.866C134.299 22.3259 134.675 22.3961 134.993 22.5367C135.312 22.6772 135.557 22.8851 135.729 23.1604C135.904 23.4329 135.992 23.7684 135.992 24.1671C135.992 24.4625 135.928 24.7306 135.802 24.9715C135.679 25.2124 135.508 25.4146 135.29 25.5781C135.072 25.7387 134.82 25.8491 134.533 25.9093L134.348 25.9781H132.176L132.167 25.5264H133.987C134.314 25.5264 134.586 25.4633 134.804 25.3372C135.022 25.211 135.186 25.0446 135.295 24.8381C135.406 24.6288 135.462 24.4051 135.462 24.1671C135.462 23.8831 135.401 23.6379 135.277 23.4314C135.157 23.2221 134.978 23.0615 134.74 22.9496C134.502 22.8378 134.211 22.7819 133.866 22.7819H132.361V28.5894H131.832V22.3259ZM135.699 28.5894L134.077 25.7889L134.645 25.7846L136.263 28.5334V28.5894H135.699ZM136.963 22.3259L138.86 25.7372L140.774 22.3259H141.385L139.127 26.2276V28.5894H138.597V26.2276L136.335 22.3259H136.963ZM147.573 27.0493C147.573 26.8772 147.545 26.7238 147.487 26.589C147.43 26.4542 147.335 26.3338 147.203 26.2276C147.074 26.1187 146.899 26.0183 146.679 25.9265C146.461 25.8319 146.188 25.7387 145.861 25.6469C145.549 25.558 145.266 25.4605 145.014 25.3544C144.761 25.2483 144.545 25.1264 144.364 24.9887C144.186 24.8511 144.05 24.6904 143.956 24.5069C143.861 24.3205 143.814 24.104 143.814 23.8573C143.814 23.6164 143.865 23.397 143.968 23.1991C144.072 23.0013 144.217 22.8306 144.403 22.6872C144.592 22.5438 144.814 22.4334 145.07 22.356C145.328 22.2785 145.61 22.2398 145.917 22.2398C146.356 22.2398 146.735 22.323 147.053 22.4893C147.374 22.6557 147.622 22.8808 147.797 23.1647C147.975 23.4458 148.064 23.7613 148.064 24.1111H147.535C147.535 23.8387 147.47 23.5963 147.341 23.3841C147.215 23.169 147.031 23.0013 146.79 22.8808C146.552 22.7575 146.261 22.6958 145.917 22.6958C145.573 22.6958 145.283 22.7489 145.048 22.855C144.816 22.9582 144.64 23.0973 144.519 23.2723C144.402 23.4443 144.343 23.6365 144.343 23.8487C144.343 23.9979 144.371 24.1355 144.429 24.2617C144.486 24.385 144.579 24.5012 144.708 24.6101C144.84 24.7163 145.014 24.8166 145.229 24.9113C145.444 25.0031 145.709 25.0905 146.025 25.1737C146.357 25.2655 146.653 25.3673 146.911 25.4791C147.169 25.591 147.387 25.72 147.565 25.8663C147.743 26.0097 147.877 26.1775 147.969 26.3696C148.061 26.5618 148.107 26.7854 148.107 27.0407C148.107 27.2959 148.052 27.5254 147.943 27.729C147.837 27.9297 147.687 28.1004 147.492 28.2409C147.3 28.3814 147.072 28.489 146.808 28.5635C146.547 28.6381 146.261 28.6754 145.952 28.6754C145.673 28.6754 145.397 28.6395 145.121 28.5678C144.846 28.4961 144.594 28.3857 144.364 28.2366C144.138 28.0846 143.956 27.8896 143.818 27.6516C143.683 27.4135 143.616 27.1296 143.616 26.7998H144.141C144.141 27.0636 144.194 27.2859 144.3 27.4666C144.406 27.6473 144.546 27.7935 144.721 27.9054C144.899 28.0172 145.094 28.0989 145.306 28.1506C145.521 28.1993 145.737 28.2237 145.952 28.2237C146.281 28.2237 146.567 28.1749 146.808 28.0774C147.051 27.9799 147.239 27.8437 147.371 27.6688C147.506 27.491 147.573 27.2845 147.573 27.0493ZM148.975 22.3259L150.872 25.7372L152.786 22.3259H153.397L151.139 26.2276V28.5894H150.61V26.2276L148.347 22.3259H148.975ZM157.578 27.0493C157.578 26.8772 157.549 26.7238 157.491 26.589C157.434 26.4542 157.339 26.3338 157.208 26.2276C157.078 26.1187 156.904 26.0183 156.683 25.9265C156.465 25.8319 156.192 25.7387 155.865 25.6469C155.553 25.558 155.27 25.4605 155.018 25.3544C154.766 25.2483 154.549 25.1264 154.368 24.9887C154.191 24.8511 154.054 24.6904 153.96 24.5069C153.865 24.3205 153.818 24.104 153.818 23.8573C153.818 23.6164 153.869 23.397 153.973 23.1991C154.076 23.0013 154.221 22.8306 154.407 22.6872C154.596 22.5438 154.819 22.4334 155.074 22.356C155.332 22.2785 155.614 22.2398 155.921 22.2398C156.36 22.2398 156.739 22.323 157.057 22.4893C157.378 22.6557 157.626 22.8808 157.801 23.1647C157.979 23.4458 158.068 23.7613 158.068 24.1111H157.539C157.539 23.8387 157.474 23.5963 157.345 23.3841C157.219 23.169 157.035 23.0013 156.795 22.8808C156.557 22.7575 156.265 22.6958 155.921 22.6958C155.577 22.6958 155.287 22.7489 155.052 22.855C154.82 22.9582 154.644 23.0973 154.523 23.2723C154.406 23.4443 154.347 23.6365 154.347 23.8487C154.347 23.9979 154.375 24.1355 154.433 24.2617C154.49 24.385 154.583 24.5012 154.712 24.6101C154.844 24.7163 155.018 24.8166 155.233 24.9113C155.448 25.0031 155.713 25.0905 156.029 25.1737C156.362 25.2655 156.657 25.3673 156.915 25.4791C157.173 25.591 157.391 25.72 157.569 25.8663C157.747 26.0097 157.882 26.1775 157.973 26.3696C158.065 26.5618 158.111 26.7854 158.111 27.0407C158.111 27.2959 158.056 27.5254 157.947 27.729C157.841 27.9297 157.691 28.1004 157.496 28.2409C157.304 28.3814 157.076 28.489 156.812 28.5635C156.551 28.6381 156.265 28.6754 155.956 28.6754C155.678 28.6754 155.401 28.6395 155.125 28.5678C154.85 28.4961 154.598 28.3857 154.368 28.2366C154.142 28.0846 153.96 27.8896 153.822 27.6516C153.687 27.4135 153.62 27.1296 153.62 26.7998H154.145C154.145 27.0636 154.198 27.2859 154.304 27.4666C154.41 27.6473 154.55 27.7935 154.725 27.9054C154.903 28.0172 155.098 28.0989 155.31 28.1506C155.526 28.1993 155.741 28.2237 155.956 28.2237C156.286 28.2237 156.571 28.1749 156.812 28.0774C157.056 27.9799 157.243 27.8437 157.375 27.6688C157.51 27.491 157.578 27.2845 157.578 27.0493ZM161.143 22.3259V28.5894H160.618V22.3259H161.143ZM163.289 22.3259V22.7819H158.476V22.3259H163.289ZM167.99 28.1377V28.5894H164.467V28.1377H167.99ZM164.626 22.3259V28.5894H164.097V22.3259H164.626ZM167.551 25.135V25.5867H164.467V25.135H167.551ZM167.969 22.3259V22.7819H164.467V22.3259H167.969ZM169.065 22.3259H169.598L171.913 27.8408L174.231 22.3259H174.76L172.115 28.5894H171.71L169.065 22.3259ZM168.901 22.3259H169.37L169.426 25.8534V28.5894H168.901V22.3259ZM174.464 22.3259H174.932V28.5894H174.403V25.8534L174.464 22.3259Z" fill="#2B4BF2"/>
</svg>
