<svg width="26" height="24" viewBox="0 0 26 24" fill="none" xmlns="http://www.w3.org/2000/svg">
<path d="M24 12C24 17.5501 19.5007 22.0494 13.9506 22.0494C12.6775 22.0494 11.4597 21.8127 10.3389 21.3809C10.1339 21.3019 10.0315 21.2625 9.94999 21.2437C9.86985 21.2252 9.81183 21.2175 9.72965 21.2143C9.64609 21.2111 9.55441 21.2206 9.37106 21.2396L3.31655 21.8654C2.73931 21.9251 2.45069 21.9549 2.28044 21.8511C2.13214 21.7606 2.03114 21.6095 2.00426 21.4379C1.97339 21.2409 2.11131 20.9856 2.38715 20.475L4.32096 16.8956C4.48022 16.6008 4.55985 16.4534 4.59592 16.3117C4.63154 16.1718 4.64015 16.0708 4.62875 15.9269C4.61722 15.7811 4.55326 15.5913 4.42533 15.2118C4.0854 14.2033 3.90114 13.1232 3.90114 12C3.90114 6.44984 8.40043 1.95056 13.9506 1.95056C19.5007 1.95056 24 6.44984 24 12Z" stroke="#FF9500" stroke-width="2.36457" stroke-linecap="round" stroke-linejoin="round"/>
</svg>
