<svg width="18" height="24" viewBox="0 0 18 24" fill="none" xmlns="http://www.w3.org/2000/svg">
<g clip-path="url(#clip0_250_614)">
<path d="M14.477 12.5137C13.9109 12.5137 13.4527 12.0544 13.4527 11.4884V6.04743C13.4527 3.84328 11.6591 2.04968 9.45491 2.04968H8.40882C6.20466 2.04968 4.41107 3.84328 4.41107 6.04743V11.4884C4.41107 12.0544 3.95282 12.5137 3.38571 12.5137C2.8186 12.5137 2.36035 12.0544 2.36035 11.4884V6.04743C2.36035 2.71321 5.07356 0 8.40778 0H9.45388C12.7881 0 15.5013 2.71321 15.5013 6.04743V11.4884C15.5013 12.0544 15.042 12.5137 14.4759 12.5137H14.477Z" fill="#4D4D4D"/>
<path d="M9.45423 0H8.93066V2.04968H9.45423C11.6584 2.04968 13.452 3.84328 13.452 6.04743V11.4884C13.452 12.0544 13.9113 12.5137 14.4763 12.5137C15.0413 12.5137 15.5017 12.0544 15.5017 11.4884V6.04743C15.5017 2.71321 12.7885 0 9.45423 0Z" fill="#404040"/>
<path d="M1.75731 8.46619H16.1051C17.0744 8.46619 17.8624 9.25309 17.8624 10.2235V22.2437C17.8624 23.2131 17.0755 24.001 16.1051 24.001H1.75731C0.787939 24.001 0 23.2141 0 22.2437V10.2235C0 9.25413 0.786902 8.46619 1.75731 8.46619Z" fill="#FFB000"/>
<path d="M16.1051 8.46619H8.93066V24H16.1051C17.0755 24 17.8624 23.2131 17.8624 22.2427V10.2235C17.8624 9.25309 17.0755 8.46619 16.1051 8.46619Z" fill="#FF9500"/>
<path d="M2.97443 13.6956H14.8879C15.2621 13.6956 15.5659 13.9994 15.5659 14.3737V18.0925C15.5659 18.4668 15.2621 18.7706 14.8879 18.7706H2.97443C2.60016 18.7706 2.29639 18.4668 2.29639 18.0925V14.3737C2.29639 13.9994 2.60016 13.6956 2.97443 13.6956Z" fill="#4D4D4D"/>
<path d="M14.8879 13.6956H8.93066V18.7716H14.8879C15.2622 18.7716 15.5659 18.4678 15.5659 18.0936V14.3747C15.5659 14.0004 15.2622 13.6967 14.8879 13.6967V13.6956Z" fill="#404040"/>
<path d="M4.71107 16.328L4.54726 16.2336L4.71107 16.1393C4.80334 16.0864 4.83444 15.9692 4.78157 15.877C4.72869 15.7847 4.6105 15.7536 4.51927 15.8065L4.35546 15.9008V15.7121C4.35546 15.6064 4.26941 15.5203 4.16366 15.5203C4.05791 15.5203 3.97186 15.6064 3.97186 15.7121V15.9008L3.80805 15.8065C3.71578 15.7536 3.59862 15.7847 3.54575 15.877C3.49287 15.9692 3.52398 16.0864 3.61625 16.1393L3.78006 16.2336L3.61625 16.328C3.52398 16.3808 3.49287 16.498 3.54575 16.5903C3.59862 16.6825 3.71682 16.7136 3.80805 16.6608L3.97186 16.5664V16.7551C3.97186 16.8609 4.05791 16.9469 4.16366 16.9469C4.26941 16.9469 4.35546 16.8609 4.35546 16.7551V16.5664L4.51927 16.6608C4.61154 16.7136 4.72869 16.6825 4.78157 16.5903C4.83444 16.498 4.80334 16.3808 4.71107 16.328Z" fill="white"/>
<path d="M7.09486 16.328L6.93105 16.2336L7.09486 16.1393C7.18609 16.0864 7.21823 15.9692 7.16536 15.877C7.11248 15.7847 6.99429 15.7536 6.90306 15.8065L6.73925 15.9008V15.7121C6.73925 15.6064 6.6532 15.5203 6.54745 15.5203C6.4417 15.5203 6.35565 15.6064 6.35565 15.7121V15.9008L6.19184 15.8065C6.09957 15.7536 5.98241 15.7847 5.92954 15.877C5.87666 15.9692 5.90777 16.0864 6.00004 16.1393L6.16385 16.2336L6.00004 16.328C5.90777 16.3808 5.87666 16.498 5.92954 16.5903C5.98241 16.6825 6.1006 16.7136 6.19184 16.6608L6.35565 16.5664V16.7551C6.35565 16.8609 6.4417 16.9469 6.54745 16.9469C6.6532 16.9469 6.73925 16.8609 6.73925 16.7551V16.5664L6.90306 16.6608C6.99533 16.7136 7.11248 16.6825 7.16536 16.5903C7.21823 16.498 7.18713 16.3808 7.09486 16.328Z" fill="white"/>
<path d="M9.47914 16.328L9.31533 16.2336L9.47914 16.1393C9.57037 16.0864 9.60251 15.9692 9.54964 15.877C9.49676 15.7847 9.37857 15.7536 9.28734 15.8065L9.12353 15.9008V15.7121C9.12353 15.6064 9.03748 15.5203 8.93173 15.5203C8.82598 15.5203 8.73993 15.6064 8.73993 15.7121V15.9008L8.57612 15.8065C8.48488 15.7536 8.36669 15.7847 8.31382 15.877C8.26094 15.9692 8.29204 16.0864 8.38432 16.1393L8.54812 16.2336L8.38432 16.328C8.29204 16.3808 8.26094 16.498 8.31382 16.5903C8.36669 16.6825 8.48488 16.7136 8.57612 16.6608L8.73993 16.5664V16.7551C8.73993 16.8609 8.82598 16.9469 8.93173 16.9469C9.03748 16.9469 9.12353 16.8609 9.12353 16.7551V16.5664L9.2863 16.6608C9.37857 16.7136 9.49572 16.6825 9.5486 16.5903C9.60147 16.498 9.57037 16.3808 9.4781 16.328H9.47914Z" fill="white"/>
<path d="M11.8629 16.328L11.6991 16.2336L11.8629 16.1393C11.9552 16.0864 11.9863 15.9692 11.9334 15.877C11.8806 15.7847 11.7624 15.7536 11.6711 15.8065L11.5073 15.9008V15.7121C11.5073 15.6064 11.4213 15.5203 11.3155 15.5203C11.2098 15.5203 11.1237 15.6064 11.1237 15.7121V15.9008L10.9599 15.8065C10.8676 15.7536 10.7505 15.7847 10.6976 15.877C10.6447 15.9692 10.6758 16.0864 10.7681 16.1393L10.9319 16.2336L10.7681 16.328C10.6758 16.3808 10.6447 16.498 10.6976 16.5903C10.7505 16.6825 10.8687 16.7136 10.9599 16.6608L11.1237 16.5664V16.7551C11.1237 16.8609 11.2098 16.9469 11.3155 16.9469C11.4213 16.9469 11.5073 16.8609 11.5073 16.7551V16.5664L11.6711 16.6608C11.7634 16.7136 11.8806 16.6825 11.9334 16.5903C11.9863 16.498 11.9552 16.3808 11.8629 16.328Z" fill="white"/>
<path d="M14.2472 16.328L14.0834 16.2336L14.2472 16.1393C14.3395 16.0864 14.3706 15.9692 14.3177 15.877C14.2648 15.7847 14.1466 15.7536 14.0554 15.8065L13.8916 15.9008V15.7121C13.8916 15.6064 13.8055 15.5203 13.6998 15.5203C13.594 15.5203 13.508 15.6064 13.508 15.7121V15.9008L13.3442 15.8065C13.2529 15.7536 13.1348 15.7847 13.0819 15.877C13.029 15.9692 13.0601 16.0864 13.1524 16.1393L13.3162 16.2336L13.1524 16.328C13.0611 16.3808 13.029 16.498 13.0819 16.5903C13.1348 16.6825 13.2529 16.7136 13.3442 16.6608L13.508 16.5664V16.7551C13.508 16.8609 13.594 16.9469 13.6998 16.9469C13.8055 16.9469 13.8916 16.8609 13.8916 16.7551V16.5664L14.0554 16.6608C14.1477 16.7136 14.2648 16.6825 14.3177 16.5903C14.3706 16.498 14.3395 16.3808 14.2472 16.328Z" fill="white"/>
</g>
<defs>
<clipPath id="clip0_250_614">
<rect width="17.8624" height="24" fill="white"/>
</clipPath>
</defs>
</svg>
