<svg width="22" height="22" viewBox="0 0 22 22" fill="none" xmlns="http://www.w3.org/2000/svg">
<path d="M1.83398 4.58333C1.83398 4.0971 2.02714 3.63079 2.37096 3.28697C2.71477 2.94315 3.18109 2.75 3.66732 2.75H9.16732V19.25H3.66732C3.18109 19.25 2.71477 19.0568 2.37096 18.713C2.02714 18.3692 1.83398 17.9029 1.83398 17.4167V4.58333Z" stroke="#292929" stroke-width="1.5" stroke-linecap="round" stroke-linejoin="round"/>
<path d="M12.834 2.75H18.334C18.8202 2.75 19.2865 2.94315 19.6303 3.28697C19.9742 3.63079 20.1673 4.0971 20.1673 4.58333V9.16667H12.834V2.75Z" stroke="#292929" stroke-width="1.5" stroke-linecap="round" stroke-linejoin="round"/>
<path d="M12.834 12.8333H20.1673V17.4166C20.1673 17.9028 19.9742 18.3691 19.6303 18.7129C19.2865 19.0568 18.8202 19.2499 18.334 19.2499H12.834V12.8333Z" stroke="#292929" stroke-width="1.5" stroke-linecap="round" stroke-linejoin="round"/>
</svg>
