<svg width="24" height="24" viewBox="0 0 24 24" fill="none" xmlns="http://www.w3.org/2000/svg">
<path d="M8.76047 22.27H8.89047C13.3305 22.27 15.4705 20.52 15.8405 16.6C15.8805 16.19 15.5805 15.82 15.1605 15.78C14.7605 15.74 14.3805 16.05 14.3405 16.46C14.0505 19.6 12.5705 20.77 8.88047 20.77H8.75047C4.68047 20.77 3.24047 19.33 3.24047 15.26V8.73998C3.24047 4.66998 4.68047 3.22998 8.75047 3.22998H8.88047C12.5905 3.22998 14.0705 4.41998 14.3405 7.61998C14.3905 8.02998 14.7405 8.33998 15.1605 8.29998C15.5805 8.26998 15.8805 7.89998 15.8505 7.48998C15.5105 3.50998 13.3605 1.72998 8.89047 1.72998H8.76047C3.85047 1.72998 1.75047 3.82998 1.75047 8.73998V15.26C1.75047 20.17 3.85047 22.27 8.76047 22.27Z" fill="#292929"/>
<path d="M8.99988 12.75H20.3799C20.7899 12.75 21.1299 12.41 21.1299 12C21.1299 11.59 20.7899 11.25 20.3799 11.25H8.99988C8.58988 11.25 8.24988 11.59 8.24988 12C8.24988 12.41 8.58988 12.75 8.99988 12.75Z" fill="#292929"/>
<path d="M18.1496 16.1001C18.3396 16.1001 18.5296 16.0301 18.6796 15.8801L22.0296 12.5301C22.3196 12.2401 22.3196 11.7601 22.0296 11.4701L18.6796 8.12009C18.3896 7.83009 17.9096 7.83009 17.6196 8.12009C17.3296 8.41009 17.3296 8.89009 17.6196 9.18009L20.4396 12.0001L17.6196 14.8201C17.3296 15.1101 17.3296 15.5901 17.6196 15.8801C17.7596 16.0301 17.9596 16.1001 18.1496 16.1001Z" fill="#292929"/>
</svg>
