<svg width="20" height="22" viewBox="0 0 22 22" fill="none" xmlns="http://www.w3.org/2000/svg">
<path d="M1.83398 5.50008C1.83398 5.01385 2.02714 4.54754 2.37096 4.20372C2.71477 3.8599 3.18109 3.66675 3.66732 3.66675H18.334C18.8202 3.66675 19.2865 3.8599 19.6303 4.20372C19.9742 4.54754 20.1673 5.01385 20.1673 5.50008V16.5001C20.1673 16.9863 19.9742 17.4526 19.6303 17.7964C19.2865 18.1403 18.8202 18.3334 18.334 18.3334H3.66732C3.18109 18.3334 2.71477 18.1403 2.37096 17.7964C2.02714 17.4526 1.83398 16.9863 1.83398 16.5001V5.50008Z" stroke="#292929" stroke-width="1.25" stroke-linecap="round" stroke-linejoin="round"/>
<path d="M1.83398 7.33325L8.7099 12.8342C9.36008 13.3544 10.168 13.6378 11.0007 13.6378C11.8333 13.6378 12.6412 13.3544 13.2914 12.8342L20.1673 7.33325" stroke="#292929" stroke-width="1.25" stroke-linecap="round" stroke-linejoin="round"/>
</svg>
