<svg width="22" height="22" viewBox="0 0 22 22" fill="none" xmlns="http://www.w3.org/2000/svg">
<path d="M14.2077 3.66675H16.4993C16.9856 3.66675 17.4519 3.8599 17.7957 4.20372C18.1395 4.54754 18.3327 5.01385 18.3327 5.50008V17.4167C18.3327 17.903 18.1395 18.3693 17.7957 18.7131C17.4519 19.0569 16.9856 19.2501 16.4993 19.2501H5.49935C5.01312 19.2501 4.5468 19.0569 4.20299 18.7131C3.85917 18.3693 3.66602 17.903 3.66602 17.4167V5.50008C3.66602 5.01385 3.85917 4.54754 4.20299 4.20372C4.5468 3.8599 5.01312 3.66675 5.49935 3.66675H7.79102" stroke="#292929" stroke-width="1.25" stroke-linecap="round" stroke-linejoin="round"/>
<path d="M7.90323 3.222C8.00237 2.82538 8.23124 2.47327 8.55345 2.22165C8.87567 1.97002 9.27274 1.83331 9.68157 1.83325H12.3188C12.7276 1.83331 13.1247 1.97002 13.4469 2.22165C13.7691 2.47327 13.998 2.82538 14.0972 3.222L14.6673 5.49992H7.33398L7.90323 3.222Z" stroke="#292929" stroke-width="1.25" stroke-linecap="round" stroke-linejoin="round"/>
<path d="M8.25 11H13.75" stroke="#292929" stroke-width="1.25" stroke-linecap="round" stroke-linejoin="round"/>
<path d="M8.25 14.6667H13.75" stroke="#292929" stroke-width="1.25" stroke-linecap="round" stroke-linejoin="round"/>
</svg>
