<svg width="22" height="22" viewBox="0 0 22 22" fill="none" xmlns="http://www.w3.org/2000/svg">
<path d="M3.64528 9.01992C3.68215 8.56049 3.89072 8.13181 4.22945 7.81924C4.56818 7.50667 5.01221 7.33316 5.47311 7.33325H16.5263C16.9872 7.33316 17.4312 7.50667 17.7699 7.81924C18.1087 8.13181 18.3172 8.56049 18.3541 9.01992L19.0902 18.1866C19.1104 18.4388 19.0782 18.6926 18.9956 18.9318C18.913 19.171 18.7818 19.3905 18.6101 19.5765C18.4385 19.7625 18.2303 19.9109 17.9985 20.0125C17.7667 20.114 17.5164 20.1665 17.2633 20.1666H4.73611C4.48304 20.1665 4.23273 20.114 4.00093 20.0125C3.76913 19.9109 3.56087 19.7625 3.38925 19.5765C3.21764 19.3905 3.08639 19.171 3.00377 18.9318C2.92115 18.6926 2.88895 18.4388 2.9092 18.1866L3.64528 9.01992Z" stroke="#292929" stroke-width="1.25" stroke-linecap="round" stroke-linejoin="round"/>
<path d="M14.6673 10.0833V5.49992C14.6673 4.52746 14.281 3.59483 13.5934 2.90719C12.9057 2.21956 11.9731 1.83325 11.0007 1.83325C10.0282 1.83325 9.09556 2.21956 8.40793 2.90719C7.72029 3.59483 7.33398 4.52746 7.33398 5.49992V10.0833" stroke="#292929" stroke-width="1.25" stroke-linecap="round" stroke-linejoin="round"/>
</svg>
