<svg width="19" height="18" viewBox="0 0 22 22" fill="none" xmlns="http://www.w3.org/2000/svg">
<path d="M12.834 2.9965C12.834 2.35392 12.3133 1.83325 11.6707 1.83325H10.3315C9.68798 1.83325 9.16732 2.35392 9.16732 2.9965C9.16732 3.52634 8.80432 3.981 8.31023 4.17534C8.23232 4.2065 8.1544 4.2395 8.07832 4.2725C7.59157 4.48333 7.01315 4.41917 6.63732 4.04425C6.41919 3.82628 6.12344 3.70384 5.81507 3.70384C5.5067 3.70384 5.21095 3.82628 4.99282 4.04425L4.04498 4.99209C3.82701 5.21021 3.70457 5.50597 3.70457 5.81434C3.70457 6.12271 3.82701 6.41846 4.04498 6.63658C4.42082 7.01242 4.48498 7.58992 4.27232 8.07759C4.2389 8.15433 4.20682 8.23165 4.17607 8.3095C3.98173 8.80358 3.52707 9.16658 2.99723 9.16658C2.35465 9.16658 1.83398 9.68725 1.83398 10.3298V11.67C1.83398 12.3126 2.35465 12.8333 2.99723 12.8333C3.52707 12.8333 3.98173 13.1963 4.17607 13.6903C4.20723 13.7683 4.24023 13.8462 4.27232 13.9223C4.48407 14.409 4.4199 14.9874 4.04498 15.3633C3.82701 15.5814 3.70457 15.8771 3.70457 16.1855C3.70457 16.4939 3.82701 16.7896 4.04498 17.0078L4.99282 17.9556C5.21095 18.1736 5.5067 18.296 5.81507 18.296C6.12344 18.296 6.41919 18.1736 6.63732 17.9556C7.01315 17.5798 7.59065 17.5156 8.07832 17.7273C8.1544 17.7613 8.23232 17.7933 8.31023 17.8245C8.80432 18.0188 9.16732 18.4735 9.16732 19.0033C9.16732 19.6459 9.68798 20.1666 10.3306 20.1666H11.6707C12.3133 20.1666 12.834 19.6459 12.834 19.0033C12.834 18.4735 13.197 18.0188 13.6911 17.8236C13.769 17.7933 13.8469 17.7613 13.923 17.7283C14.4097 17.5156 14.9882 17.5807 15.3631 17.9556C15.4711 18.0637 15.5993 18.1494 15.7405 18.2079C15.8817 18.2664 16.033 18.2965 16.1858 18.2965C16.3386 18.2965 16.4899 18.2664 16.631 18.2079C16.7722 18.1494 16.9005 18.0637 17.0085 17.9556L17.9563 17.0078C18.1743 16.7896 18.2967 16.4939 18.2967 16.1855C18.2967 15.8771 18.1743 15.5814 17.9563 15.3633C17.5805 14.9874 17.5163 14.4099 17.7281 13.9223C17.762 13.8462 17.7941 13.7683 17.8252 13.6903C18.0196 13.1963 18.4742 12.8333 19.0041 12.8333C19.6467 12.8333 20.1673 12.3126 20.1673 11.67V10.3308C20.1673 9.68817 19.6467 9.1675 19.0041 9.1675C18.4742 9.1675 18.0196 8.8045 17.8243 8.31042C17.7936 8.23255 17.7615 8.15523 17.7281 8.0785C17.5172 7.59175 17.5814 7.01334 17.9563 6.6375C18.1743 6.41937 18.2967 6.12362 18.2967 5.81525C18.2967 5.50688 18.1743 5.21113 17.9563 4.993L17.0085 4.04517C16.7904 3.8272 16.4946 3.70475 16.1862 3.70475C15.8779 3.70475 15.5821 3.8272 15.364 4.04517C14.9882 4.421 14.4107 4.48517 13.923 4.27342C13.8462 4.23969 13.7689 4.2073 13.6911 4.17625C13.197 3.981 12.834 3.52542 12.834 2.9965Z" stroke="#292929" stroke-width="1.25" stroke-linecap="round" stroke-linejoin="round"/>
<path d="M14.6673 10.9999C14.6673 11.9724 14.281 12.905 13.5934 13.5926C12.9057 14.2803 11.9731 14.6666 11.0007 14.6666C10.0282 14.6666 9.09556 14.2803 8.40793 13.5926C7.72029 12.905 7.33398 11.9724 7.33398 10.9999C7.33398 10.0275 7.72029 9.09483 8.40793 8.40719C9.09556 7.71956 10.0282 7.33325 11.0007 7.33325C11.9731 7.33325 12.9057 7.71956 13.5934 8.40719C14.281 9.09483 14.6673 10.0275 14.6673 10.9999Z" stroke="#292929" stroke-width="1.25" stroke-linecap="round" stroke-linejoin="round"/>
</svg>
