<svg width="22" height="22" viewBox="0 0 17 16" fill="none" xmlns="http://www.w3.org/2000/svg">
<path d="M0 2.16667C0 1.72464 0.175595 1.30072 0.488155 0.988155C0.800716 0.675595 1.22464 0.5 1.66667 0.5H6.66667V15.5H1.66667C1.22464 15.5 0.800716 15.3244 0.488155 15.0118C0.175595 14.6993 0 14.2754 0 13.8333V2.16667Z" fill="#292929"/>
<path d="M10 0.5H15C15.442 0.5 15.866 0.675595 16.1785 0.988155C16.4911 1.30072 16.6667 1.72464 16.6667 2.16667V6.33333H10V0.5Z" fill="#292929"/>
<path d="M10 9.6665H16.6667V13.8332C16.6667 14.2752 16.4911 14.6991 16.1785 15.0117C15.866 15.3242 15.442 15.4998 15 15.4998H10V9.6665Z" fill="#292929"/>
</svg>
