<svg width="22" height="22" viewBox="0 0 14 18" fill="none" xmlns="http://www.w3.org/2000/svg">
<path fill-rule="evenodd" clip-rule="evenodd" d="M0 3.87353C0 3.32125 0.447715 2.87354 1 2.87354H12.33C12.8823 2.87354 13.33 3.32125 13.33 3.87354V16.0435C13.33 16.5958 12.8823 17.0435 12.33 17.0435H1C0.447716 17.0435 0 16.5958 0 16.0435V3.87353ZM3.375 9.87354C3.375 9.52836 3.65482 9.24854 4 9.24854H9C9.34518 9.24854 9.625 9.52836 9.625 9.87354C9.625 10.2187 9.34518 10.4985 9 10.4985H4C3.65482 10.4985 3.375 10.2187 3.375 9.87354ZM4 12.2485C3.65482 12.2485 3.375 12.5284 3.375 12.8735C3.375 13.2187 3.65482 13.4985 4 13.4985H9C9.34518 13.4985 9.625 13.2187 9.625 12.8735C9.625 12.5284 9.34518 12.2485 9 12.2485H4Z" fill="#292929"/>
<path d="M3.5175 2.21904C3.60763 1.85848 3.81569 1.53838 4.10861 1.30963C4.40153 1.08088 4.76251 0.956599 5.13417 0.956543H7.53167C7.90333 0.956599 8.2643 1.08088 8.55722 1.30963C8.85015 1.53838 9.05821 1.85848 9.14833 2.21904L9.66667 4.28988H3L3.5175 2.21904Z" stroke="#292929" stroke-width="1.25" stroke-linecap="round" stroke-linejoin="round"/>
</svg>
