<svg width="19" height="18" viewBox="0 0 19 18" fill="none" xmlns="http://www.w3.org/2000/svg">
<path fill-rule="evenodd" clip-rule="evenodd" d="M9.9425 0.666504C10.5267 0.666504 11 1.13984 11 1.724C11 2.20484 11.33 2.619 11.7792 2.7965C11.8499 2.82473 11.9202 2.85418 11.99 2.88484C12.4333 3.07734 12.9583 3.019 13.3 2.67734C13.4983 2.47918 13.7672 2.36787 14.0475 2.36787C14.3278 2.36787 14.5967 2.47918 14.795 2.67734L15.6567 3.539C15.8548 3.7373 15.9661 4.00617 15.9661 4.2865C15.9661 4.56684 15.8548 4.83571 15.6567 5.034C15.3158 5.37567 15.2575 5.9015 15.4492 6.344C15.4796 6.41376 15.5087 6.48405 15.5367 6.55484C15.7142 7.004 16.1275 7.334 16.6092 7.334C17.1933 7.334 17.6667 7.80734 17.6667 8.3915V9.609C17.6667 10.1932 17.1933 10.6665 16.6092 10.6665C16.1275 10.6665 15.7142 10.9965 15.5375 11.4457C15.5092 11.5165 15.48 11.5873 15.4492 11.6565C15.2567 12.0998 15.315 12.6248 15.6567 12.9665C15.8548 13.1648 15.9661 13.4337 15.9661 13.714C15.9661 13.9943 15.8548 14.2632 15.6567 14.4615L14.795 15.3232C14.6968 15.4214 14.5802 15.4993 14.4519 15.5525C14.3235 15.6057 14.186 15.6331 14.0471 15.6331C13.9082 15.6331 13.7706 15.6057 13.6423 15.5525C13.514 15.4993 13.3974 15.4214 13.2992 15.3232C12.9583 14.9823 12.4325 14.9232 11.99 15.1165C11.9208 15.1465 11.85 15.1757 11.7792 15.2032C11.33 15.3807 11 15.794 11 16.2757C11 16.8598 10.5267 17.3332 9.9425 17.3332H8.72417C8.14 17.3332 7.66667 16.8598 7.66667 16.2757C7.66667 15.794 7.33667 15.3807 6.8875 15.204C6.81667 15.1757 6.74583 15.1465 6.67667 15.1157C6.23333 14.9232 5.70833 14.9815 5.36667 15.3232C5.16837 15.5213 4.8995 15.6326 4.61917 15.6326C4.33883 15.6326 4.06996 15.5213 3.87167 15.3232L3.01 14.4615C2.81184 14.2632 2.70053 13.9943 2.70053 13.714C2.70053 13.4337 2.81184 13.1648 3.01 12.9665C3.35083 12.6248 3.40917 12.099 3.21667 11.6565L3.21028 11.6414C3.18314 11.577 3.15544 11.5113 3.12917 11.4457C2.9525 10.9965 2.53917 10.6665 2.0575 10.6665C1.47333 10.6665 1 10.1932 1 9.609V8.39067C1 7.8065 1.47333 7.33317 2.0575 7.33317C2.53917 7.33317 2.9525 7.00317 3.12917 6.554C3.15712 6.48323 3.18629 6.41294 3.21667 6.34317C3.41 5.89984 3.35167 5.37484 3.01 5.03317C2.81184 4.83487 2.70053 4.56601 2.70053 4.28567C2.70053 4.00533 2.81184 3.73647 3.01 3.53817L3.87167 2.6765C4.06996 2.47835 4.33883 2.36703 4.61917 2.36703C4.8995 2.36703 5.16837 2.47835 5.36667 2.6765C5.70833 3.01734 6.23417 3.07567 6.67667 2.884C6.74583 2.854 6.81667 2.824 6.8875 2.79567C7.33667 2.619 7.66667 2.20567 7.66667 1.724C7.66667 1.13984 8.14 0.666504 8.725 0.666504H9.9425ZM11.6904 11.3569C12.3155 10.7317 12.6667 9.88389 12.6667 8.99984C12.6667 8.11578 12.3155 7.26794 11.6904 6.64281C11.0652 6.01769 10.2174 5.6665 9.33333 5.6665C8.44928 5.6665 7.60143 6.01769 6.97631 6.64281C6.35119 7.26794 6 8.11578 6 8.99984C6 9.88389 6.35119 10.7317 6.97631 11.3569C7.60143 11.982 8.44928 12.3332 9.33333 12.3332C10.2174 12.3332 11.0652 11.982 11.6904 11.3569Z" fill="#292929"/>
<path d="M11.7792 2.7965L12.0107 2.21595L12.0089 2.21524L11.7792 2.7965ZM11.99 2.88484L11.7385 3.45702L11.7411 3.45813L11.99 2.88484ZM13.3 2.67734L12.8582 2.23524L12.8581 2.2354L13.3 2.67734ZM14.795 2.67734L15.2369 2.2354L15.2368 2.23524L14.795 2.67734ZM15.6567 3.539L16.0988 3.09722L16.0986 3.09706L15.6567 3.539ZM15.6567 5.034L15.2146 4.59222L15.2142 4.5926L15.6567 5.034ZM15.4492 6.344L14.8757 6.59242L14.8762 6.59373L15.4492 6.344ZM15.5367 6.55484L14.9553 6.78418L14.9554 6.78454L15.5367 6.55484ZM15.5375 11.4457L16.1178 11.6778L16.1191 11.6744L15.5375 11.4457ZM15.4492 11.6565L14.8783 11.402L14.8759 11.4076L15.4492 11.6565ZM15.6567 12.9665L16.0988 12.5247L16.0986 12.5246L15.6567 12.9665ZM15.6567 14.4615L16.0986 14.9034L16.0988 14.9033L15.6567 14.4615ZM14.795 15.3232L14.3531 14.8812L14.353 14.8813L14.795 15.3232ZM13.2992 15.3232L13.7412 14.8813L13.7411 14.8812L13.2992 15.3232ZM11.99 15.1165L12.2387 15.6899L12.2402 15.6892L11.99 15.1165ZM11.7792 15.2032L11.553 14.6205L11.5495 14.6219L11.7792 15.2032ZM6.8875 15.204L6.65537 15.7843L6.65873 15.7856L6.8875 15.204ZM6.67667 15.1157L6.93115 14.5448L6.92559 14.5424L6.67667 15.1157ZM5.36667 15.3232L5.80845 15.7653L5.80861 15.7651L5.36667 15.3232ZM3.87167 15.3232L3.42973 15.7651L3.42988 15.7653L3.87167 15.3232ZM3.01 14.4615L2.5679 14.9033L2.56806 14.9034L3.01 14.4615ZM3.01 12.9665L3.4521 13.4083L3.45248 13.4079L3.01 12.9665ZM3.21667 11.6565L2.64076 11.8994L2.64355 11.9058L3.21667 11.6565ZM3.21028 11.6414L3.78616 11.3985L3.78615 11.3985L3.21028 11.6414ZM3.12917 11.4457L2.54753 11.6744L2.54887 11.6778L3.12917 11.4457ZM3.12917 6.554L2.54786 6.32441L2.54754 6.32524L3.12917 6.554ZM3.21667 6.34317L2.64377 6.09334L2.64362 6.09368L3.21667 6.34317ZM3.01 5.03317L2.5679 5.47496L2.56806 5.47511L3.01 5.03317ZM3.01 3.53817L2.56806 3.09623L2.5679 3.09639L3.01 3.53817ZM3.87167 2.6765L3.42988 2.23441L3.42972 2.23456L3.87167 2.6765ZM5.36667 2.6765L4.92488 3.1186L4.92526 3.11898L5.36667 2.6765ZM6.67667 2.884L6.92508 3.45752L6.92536 3.45739L6.67667 2.884ZM6.8875 2.79567L6.65873 2.21403L6.65538 2.21537L6.8875 2.79567ZM11.6904 6.64281L11.2484 7.08476L11.6904 6.64281ZM6.97631 6.64281L7.41825 7.08476L6.97631 6.64281ZM6.97631 11.3569L7.41825 10.9149L6.97631 11.3569ZM11.625 1.724C11.625 0.794659 10.8718 0.0415039 9.9425 0.0415039V1.2915C10.1815 1.2915 10.375 1.48502 10.375 1.724H11.625ZM12.0089 2.21524C11.7559 2.1153 11.625 1.90566 11.625 1.724H10.375C10.375 2.50402 10.9041 3.12271 11.5495 3.37776L12.0089 2.21524ZM12.2415 2.31266C12.1651 2.27909 12.0881 2.24685 12.0107 2.21595L11.5477 3.37705C11.6118 3.4026 11.6754 3.42926 11.7385 3.45702L12.2415 2.31266ZM12.8581 2.2354C12.7282 2.36524 12.4888 2.42006 12.2389 2.31155L11.7411 3.45813C12.3778 3.73461 13.1885 3.67277 13.7419 3.11928L12.8581 2.2354ZM14.0475 1.74287C13.6015 1.74287 13.1737 1.91997 12.8582 2.23524L13.7418 3.11944C13.8229 3.03839 13.9328 2.99287 14.0475 2.99287V1.74287ZM15.2368 2.23524C14.9213 1.91997 14.4935 1.74287 14.0475 1.74287V2.99287C14.1622 2.99287 14.2721 3.03839 14.3532 3.11944L15.2368 2.23524ZM16.0986 3.09706L15.2369 2.2354L14.3531 3.11928L15.2147 3.98095L16.0986 3.09706ZM16.5911 4.2865C16.5911 3.84048 16.414 3.41271 16.0988 3.09722L15.2146 3.98079C15.2956 4.06189 15.3411 4.17185 15.3411 4.2865H16.5911ZM16.0988 5.47579C16.414 5.16029 16.5911 4.73252 16.5911 4.2865H15.3411C15.3411 4.40116 15.2956 4.51112 15.2146 4.59222L16.0988 5.47579ZM16.0227 6.09559C15.9147 5.84627 15.9694 5.60542 16.0991 5.47541L15.2142 4.5926C14.6622 5.14592 14.6003 5.95674 14.8757 6.59242L16.0227 6.09559ZM16.1181 6.32549C16.0874 6.24786 16.0555 6.17078 16.0221 6.09428L14.8762 6.59373C14.9037 6.65674 14.93 6.72024 14.9553 6.78418L16.1181 6.32549ZM16.6092 6.709C16.4269 6.709 16.218 6.57833 16.1179 6.32514L14.9554 6.78454C15.2104 7.42968 15.8281 7.959 16.6092 7.959V6.709ZM18.2917 8.3915C18.2917 7.46216 17.5385 6.709 16.6092 6.709V7.959C16.8482 7.959 17.0417 8.15251 17.0417 8.3915H18.2917ZM18.2917 9.609V8.3915H17.0417V9.609H18.2917ZM16.6092 11.2915C17.5385 11.2915 18.2917 10.5383 18.2917 9.609H17.0417C17.0417 9.84799 16.8482 10.0415 16.6092 10.0415V11.2915ZM16.1191 11.6744C16.2183 11.4222 16.4268 11.2915 16.6092 11.2915V10.0415C15.8282 10.0415 15.21 10.5708 14.9559 11.2169L16.1191 11.6744ZM16.02 11.911C16.0555 11.8313 16.0881 11.752 16.1178 11.6778L14.9572 11.2135C14.9302 11.281 14.9045 11.3434 14.8783 11.402L16.02 11.911ZM16.0986 12.5246C15.9688 12.3947 15.9139 12.1553 16.0225 11.9054L14.8759 11.4076C14.5994 12.0443 14.6612 12.855 15.2147 13.4084L16.0986 12.5246ZM16.5911 13.714C16.5911 13.268 16.414 12.8402 16.0988 12.5247L15.2146 13.4083C15.2956 13.4894 15.3411 13.5994 15.3411 13.714H16.5911ZM16.0988 14.9033C16.414 14.5878 16.5911 14.16 16.5911 13.714H15.3411C15.3411 13.8287 15.2956 13.9386 15.2146 14.0197L16.0988 14.9033ZM15.2369 15.7651L16.0986 14.9034L15.2147 14.0196L14.3531 14.8812L15.2369 15.7651ZM14.6911 16.1299C14.8953 16.0453 15.0808 15.9213 15.237 15.765L14.353 14.8813C14.3128 14.9215 14.2651 14.9534 14.2126 14.9751L14.6911 16.1299ZM14.0471 16.2581C14.2681 16.2581 14.4869 16.2145 14.6911 16.1299L14.2126 14.9751C14.1601 14.9969 14.1039 15.0081 14.0471 15.0081V16.2581ZM13.4031 16.1299C13.6072 16.2145 13.8261 16.2581 14.0471 16.2581V15.0081C13.9903 15.0081 13.934 14.9969 13.8815 14.9751L13.4031 16.1299ZM12.8571 15.765C13.0134 15.9213 13.1989 16.0453 13.4031 16.1299L13.8815 14.9751C13.829 14.9534 13.7814 14.9215 13.7412 14.8813L12.8571 15.765ZM12.2402 15.6892C12.4879 15.581 12.7278 15.6357 12.8572 15.7651L13.7411 14.8812C13.1888 14.3289 12.3771 14.2653 11.7398 14.5438L12.2402 15.6892ZM12.0054 15.7858C12.0841 15.7553 12.1624 15.723 12.2387 15.6899L11.7413 14.5431C11.6793 14.57 11.6159 14.5961 11.553 14.6205L12.0054 15.7858ZM11.625 16.2757C11.625 16.0934 11.7557 15.8845 12.0089 15.7844L11.5495 14.6219C10.9043 14.8769 10.375 15.4946 10.375 16.2757H11.625ZM9.9425 17.9582C10.8718 17.9582 11.625 17.205 11.625 16.2757H10.375C10.375 16.5147 10.1815 16.7082 9.9425 16.7082V17.9582ZM8.72417 17.9582H9.9425V16.7082H8.72417V17.9582ZM7.04167 16.2757C7.04167 17.205 7.79482 17.9582 8.72417 17.9582V16.7082C8.48518 16.7082 8.29167 16.5147 8.29167 16.2757H7.04167ZM6.65873 15.7856C6.91095 15.8848 7.04167 16.0933 7.04167 16.2757H8.29167C8.29167 15.4947 7.76239 14.8765 7.11627 14.6224L6.65873 15.7856ZM6.42219 15.6865C6.5019 15.7221 6.58113 15.7546 6.65538 15.7843L7.11962 14.6237C7.0522 14.5967 6.98976 14.571 6.93114 14.5448L6.42219 15.6865ZM5.80861 15.7651C5.93845 15.6353 6.17783 15.5804 6.42774 15.689L6.92559 14.5424C6.28884 14.2659 5.47821 14.3277 4.92472 14.8812L5.80861 15.7651ZM4.61917 16.2576C5.06519 16.2576 5.49296 16.0805 5.80845 15.7653L4.92488 14.8811C4.84378 14.9621 4.73382 15.0076 4.61917 15.0076V16.2576ZM3.42988 15.7653C3.74538 16.0805 4.17315 16.2576 4.61917 16.2576V15.0076C4.50452 15.0076 4.39455 14.9621 4.31345 14.8811L3.42988 15.7653ZM2.56806 14.9034L3.42973 15.7651L4.31361 14.8812L3.45194 14.0196L2.56806 14.9034ZM2.07553 13.714C2.07553 14.16 2.25263 14.5878 2.5679 14.9033L3.4521 14.0197C3.37106 13.9386 3.32553 13.8287 3.32553 13.714H2.07553ZM2.5679 12.5247C2.25263 12.8402 2.07553 13.268 2.07553 13.714H3.32553C3.32553 13.5994 3.37106 13.4894 3.4521 13.4083L2.5679 12.5247ZM2.64355 11.9058C2.75179 12.1546 2.69718 12.3951 2.56752 12.5251L3.45248 13.4079C4.00449 12.8545 4.06655 12.0434 3.78978 11.4072L2.64355 11.9058ZM2.63441 11.8843L2.64079 11.8994L3.79254 11.4136L3.78616 11.3985L2.63441 11.8843ZM2.54887 11.6778C2.57767 11.7498 2.60766 11.8208 2.63442 11.8843L3.78615 11.3985C3.75862 11.3332 3.73321 11.2729 3.70946 11.2136L2.54887 11.6778ZM2.0575 11.2915C2.23984 11.2915 2.44834 11.4222 2.54754 11.6744L3.71079 11.2169C3.45666 10.5708 2.83849 10.0415 2.0575 10.0415V11.2915ZM0.375 9.609C0.375 10.5383 1.12816 11.2915 2.0575 11.2915V10.0415C1.81851 10.0415 1.625 9.84799 1.625 9.609H0.375ZM0.375 8.39067V9.609H1.625V8.39067H0.375ZM2.0575 6.70817C1.12816 6.70817 0.375 7.46133 0.375 8.39067H1.625C1.625 8.15168 1.81851 7.95817 2.0575 7.95817V6.70817ZM2.54754 6.32524C2.44834 6.57745 2.23984 6.70817 2.0575 6.70817V7.95817C2.83849 7.95817 3.45666 7.42889 3.71079 6.78277L2.54754 6.32524ZM2.64362 6.09368C2.61038 6.17004 2.57845 6.24696 2.54786 6.32441L3.71047 6.78359C3.73578 6.7195 3.7622 6.65584 3.78971 6.59266L2.64362 6.09368ZM2.56806 5.47511C2.69786 5.60491 2.75253 5.84394 2.64377 6.09334L3.78956 6.593C4.06747 5.95573 4.00547 5.14476 3.45194 4.59123L2.56806 5.47511ZM2.07553 4.28567C2.07553 4.73169 2.25263 5.15946 2.5679 5.47496L3.4521 4.59139C3.37106 4.51028 3.32553 4.40032 3.32553 4.28567H2.07553ZM2.5679 3.09639C2.25263 3.41188 2.07553 3.83965 2.07553 4.28567H3.32553C3.32553 4.17102 3.37106 4.06106 3.4521 3.97996L2.5679 3.09639ZM3.42972 2.23456L2.56806 3.09623L3.45194 3.98011L4.31361 3.11845L3.42972 2.23456ZM4.61917 1.74203C4.17315 1.74203 3.74538 1.91913 3.42988 2.23441L4.31345 3.1186C4.39455 3.03756 4.50451 2.99203 4.61917 2.99203V1.74203ZM5.80845 2.23441C5.49296 1.91913 5.06519 1.74203 4.61917 1.74203V2.99203C4.73382 2.99203 4.84378 3.03756 4.92488 3.1186L5.80845 2.23441ZM6.42825 2.31049C6.17893 2.41848 5.93809 2.36372 5.80807 2.23402L4.92526 3.11898C5.47858 3.67095 6.2894 3.73286 6.92508 3.45752L6.42825 2.31049ZM6.65538 2.21537C6.577 2.24673 6.50023 2.27927 6.42797 2.31062L6.92536 3.45739C6.99144 3.42873 7.05633 3.40128 7.11962 3.37597L6.65538 2.21537ZM7.04167 1.724C7.04167 1.90635 6.91095 2.11484 6.65873 2.21404L7.11627 3.3773C7.76239 3.12317 8.29167 2.50499 8.29167 1.724H7.04167ZM8.725 0.0415039C7.79514 0.0415039 7.04167 0.794338 7.04167 1.724H8.29167C8.29167 1.48534 8.48486 1.2915 8.725 1.2915V0.0415039ZM9.9425 0.0415039H8.725V1.2915H9.9425V0.0415039ZM12.0417 8.99984C12.0417 9.71813 11.7563 10.407 11.2484 10.9149L12.1323 11.7988C12.8746 11.0565 13.2917 10.0497 13.2917 8.99984H12.0417ZM11.2484 7.08476C11.7563 7.59267 12.0417 8.28154 12.0417 8.99984H13.2917C13.2917 7.95002 12.8746 6.9432 12.1323 6.20087L11.2484 7.08476ZM9.33333 6.2915C10.0516 6.2915 10.7405 6.57685 11.2484 7.08476L12.1323 6.20087C11.39 5.45854 10.3831 5.0415 9.33333 5.0415V6.2915ZM7.41825 7.08476C7.92616 6.57685 8.61504 6.2915 9.33333 6.2915V5.0415C8.28352 5.0415 7.2767 5.45854 6.53437 6.20087L7.41825 7.08476ZM6.625 8.99984C6.625 8.28154 6.91034 7.59267 7.41825 7.08476L6.53437 6.20087C5.79204 6.9432 5.375 7.95002 5.375 8.99984H6.625ZM7.41825 10.9149C6.91034 10.407 6.625 9.71813 6.625 8.99984H5.375C5.375 10.0497 5.79204 11.0565 6.53437 11.7988L7.41825 10.9149ZM9.33333 11.7082C8.61504 11.7082 7.92616 11.4228 7.41825 10.9149L6.53437 11.7988C7.2767 12.5411 8.28352 12.9582 9.33333 12.9582V11.7082ZM11.2484 10.9149C10.7405 11.4228 10.0516 11.7082 9.33333 11.7082V12.9582C10.3831 12.9582 11.39 12.5411 12.1323 11.7988L11.2484 10.9149Z" fill="#292929"/>
</svg>
